<?xml version="1.0" encoding="utf-8"?>
<svg xmlns="http://www.w3.org/2000/svg" xmlns:xlink="http://www.w3.org/1999/xlink" width="672" height="480" viewBox="0 0 2688 1920">
<defs>
  <clipPath id="clip880">
    <rect x="0" y="0" width="2688" height="1920"/>
  </clipPath>
</defs>
<path clip-path="url(#clip880)" d="M0 1920 L2688 1920 L2688 -4.26326e-14 L0 -4.26326e-14  Z" fill="#ffffff" fill-rule="evenodd" fill-opacity="1"/>
<defs>
  <clipPath id="clip881">
    <rect x="537" y="0" width="1883" height="1883"/>
  </clipPath>
</defs>
<path clip-path="url(#clip880)" d="M156.534 1734.12 L2640.76 1734.12 L2640.76 127.792 L156.534 127.792  Z" fill="#ffffff" fill-rule="evenodd" fill-opacity="1"/>
<defs>
  <clipPath id="clip882">
    <rect x="156" y="127" width="2485" height="1607"/>
  </clipPath>
</defs>
<path clip-path="url(#clip880)" d="Mnan nan Lnan nan Lnan nan Lnan nan Lnan nan Qnan nan nan nan Qnan nan nan nan Qnan nan nan nan Qnan nan nan nan Qnan nan nan nan Qnan nan nan nan Qnan nan nan nan Qnan nan nan nan Lnan nan Qnan nan nan nan Qnan nan nan nan Qnan nan nan nan Qnan nan nan nan Qnan nan nan nan Qnan nan nan nan Qnan nan nan nan Qnan nan nan nan Z" fill="#000000" fill-rule="nonzero" fill-opacity="1" /><path clip-path="url(#clip880)" d="Mnan nan Lnan nan Lnan nan Lnan nan Lnan nan Z" fill="#000000" fill-rule="nonzero" fill-opacity="1" /><path clip-path="url(#clip880)" d="Mnan nan Lnan nan Lnan nan Lnan nan Lnan nan Qnan nan nan nan Qnan nan nan nan Qnan nan nan nan Qnan nan nan nan Qnan nan nan nan Qnan nan nan nan Qnan nan nan nan Qnan nan nan nan Lnan nan Qnan nan nan nan Qnan nan nan nan Qnan nan nan nan Qnan nan nan nan Qnan nan nan nan Qnan nan nan nan Qnan nan nan nan Qnan nan nan nan Lnan nan Z" fill="#000000" fill-rule="nonzero" fill-opacity="1" /><path clip-path="url(#clip880)" d="Mnan nan Lnan nan Lnan nan Lnan nan Lnan nan Qnan nan nan nan Qnan nan nan nan Qnan nan nan nan Qnan nan nan nan Qnan nan nan nan Qnan nan nan nan Qnan nan nan nan Qnan nan nan nan Lnan nan Qnan nan nan nan Qnan nan nan nan Qnan nan nan nan Qnan nan nan nan Qnan nan nan nan Qnan nan nan nan Qnan nan nan nan Qnan nan nan nan Lnan nan Z" fill="#000000" fill-rule="nonzero" fill-opacity="1" /><path clip-path="url(#clip880)" d="Mnan nan Lnan nan Lnan nan Lnan nan Lnan nan Z" fill="#000000" fill-rule="nonzero" fill-opacity="1" /><path clip-path="url(#clip880)" d="Mnan nan Qnan nan nan nan Qnan nan nan nan Qnan nan nan nan Qnan nan nan nan Qnan nan nan nan Qnan nan nan nan Qnan nan nan nan Qnan nan nan nan Mnan nan Qnan nan nan nan Qnan nan nan nan Qnan nan nan nan Qnan nan nan nan Qnan nan nan nan Qnan nan nan nan Qnan nan nan nan Qnan nan nan nan Z" fill="#000000" fill-rule="nonzero" fill-opacity="1" /><path clip-path="url(#clip880)" d="Mnan nan Lnan nan Lnan nan Lnan nan Lnan nan Lnan nan Lnan nan Lnan nan Z" fill="#000000" fill-rule="nonzero" fill-opacity="1" /><path clip-path="url(#clip880)" d="Mnan nan Lnan nan Lnan nan Lnan nan Lnan nan Z" fill="#000000" fill-rule="nonzero" fill-opacity="1" /><path clip-path="url(#clip880)" d="Mnan nan Lnan nan Lnan nan Lnan nan Lnan nan Qnan nan nan nan Qnan nan nan nan Qnan nan nan nan Qnan nan nan nan Qnan nan nan nan Qnan nan nan nan Qnan nan nan nan Qnan nan nan nan Lnan nan Qnan nan nan nan Qnan nan nan nan Qnan nan nan nan Qnan nan nan nan Qnan nan nan nan Qnan nan nan nan Qnan nan nan nan Qnan nan nan nan Lnan nan Z" fill="#000000" fill-rule="nonzero" fill-opacity="1" /><path clip-path="url(#clip880)" d="Mnan nan Lnan nan Lnan nan Lnan nan Lnan nan Lnan nan Lnan nan Lnan nan Lnan nan Lnan nan Lnan nan Lnan nan Z" fill="#000000" fill-rule="nonzero" fill-opacity="1" /><path clip-path="url(#clip880)" d="Mnan nan Qnan nan nan nan Qnan nan nan nan Qnan nan nan nan Qnan nan nan nan Qnan nan nan nan Qnan nan nan nan Qnan nan nan nan Qnan nan nan nan Mnan nan Qnan nan nan nan Qnan nan nan nan Qnan nan nan nan Qnan nan nan nan Qnan nan nan nan Qnan nan nan nan Qnan nan nan nan Qnan nan nan nan Z" fill="#000000" fill-rule="nonzero" fill-opacity="1" /><path clip-path="url(#clip880)" d="Mnan nan Lnan nan Lnan nan Lnan nan Lnan nan Z" fill="#000000" fill-rule="nonzero" fill-opacity="1" /><path clip-path="url(#clip880)" d="Mnan nan Qnan nan nan nan Qnan nan nan nan Qnan nan nan nan Qnan nan nan nan Qnan nan nan nan Qnan nan nan nan Qnan nan nan nan Qnan nan nan nan Mnan nan Qnan nan nan nan Qnan nan nan nan Qnan nan nan nan Qnan nan nan nan Qnan nan nan nan Qnan nan nan nan Qnan nan nan nan Qnan nan nan nan Z" fill="#000000" fill-rule="nonzero" fill-opacity="1" /><path clip-path="url(#clip880)" d="Mnan nan Lnan nan Lnan nan Lnan nan Lnan nan Lnan nan Lnan nan Lnan nan Lnan nan Lnan nan Lnan nan Lnan nan Z" fill="#000000" fill-rule="nonzero" fill-opacity="1" /><path clip-path="url(#clip880)" d="Mnan nan Lnan nan Lnan nan Lnan nan Lnan nan Qnan nan nan nan Qnan nan nan nan Qnan nan nan nan Qnan nan nan nan Qnan nan nan nan Qnan nan nan nan Qnan nan nan nan Qnan nan nan nan Lnan nan Qnan nan nan nan Qnan nan nan nan Qnan nan nan nan Qnan nan nan nan Qnan nan nan nan Qnan nan nan nan Qnan nan nan nan Qnan nan nan nan Z" fill="#000000" fill-rule="nonzero" fill-opacity="1" /><path clip-path="url(#clip880)" d="Mnan nan Lnan nan Lnan nan Lnan nan Lnan nan Z" fill="#000000" fill-rule="nonzero" fill-opacity="1" /><path clip-path="url(#clip880)" d="Mnan nan Lnan nan Lnan nan Lnan nan Lnan nan Qnan nan nan nan Qnan nan nan nan Qnan nan nan nan Qnan nan nan nan Qnan nan nan nan Qnan nan nan nan Qnan nan nan nan Qnan nan nan nan Lnan nan Qnan nan nan nan Qnan nan nan nan Qnan nan nan nan Qnan nan nan nan Qnan nan nan nan Qnan nan nan nan Qnan nan nan nan Qnan nan nan nan Lnan nan Z" fill="#000000" fill-rule="nonzero" fill-opacity="1" /><path clip-path="url(#clip880)" d="Mnan nan Lnan nan Lnan nan Lnan nan Lnan nan Lnan nan Lnan nan Lnan nan Lnan nan Lnan nan Lnan nan Lnan nan Z" fill="#000000" fill-rule="nonzero" fill-opacity="1" /><path clip-path="url(#clip880)" d="Mnan nan Lnan nan Lnan nan Lnan nan Lnan nan Qnan nan nan nan Qnan nan nan nan Qnan nan nan nan Qnan nan nan nan Qnan nan nan nan Qnan nan nan nan Qnan nan nan nan Qnan nan nan nan Lnan nan Qnan nan nan nan Qnan nan nan nan Qnan nan nan nan Qnan nan nan nan Qnan nan nan nan Qnan nan nan nan Qnan nan nan nan Qnan nan nan nan Lnan nan Z" fill="#000000" fill-rule="nonzero" fill-opacity="1" /><path clip-path="url(#clip880)" d="Mnan nan Lnan nan Lnan nan Lnan nan Lnan nan Z" fill="#000000" fill-rule="nonzero" fill-opacity="1" /><path clip-path="url(#clip880)" d="Mnan nan Qnan nan nan nan Qnan nan nan nan Qnan nan nan nan Qnan nan nan nan Qnan nan nan nan Qnan nan nan nan Qnan nan nan nan Qnan nan nan nan Mnan nan Qnan nan nan nan Qnan nan nan nan Qnan nan nan nan Qnan nan nan nan Qnan nan nan nan Qnan nan nan nan Qnan nan nan nan Qnan nan nan nan Z" fill="#000000" fill-rule="nonzero" fill-opacity="1" /><path clip-path="url(#clip880)" d="Mnan nan Lnan nan Lnan nan Lnan nan Lnan nan Lnan nan Lnan nan Lnan nan Lnan nan Lnan nan Lnan nan Lnan nan Z" fill="#000000" fill-rule="nonzero" fill-opacity="1" /><path clip-path="url(#clip880)" d="Mnan nan Lnan nan Lnan nan Lnan nan Lnan nan Lnan nan Lnan nan Lnan nan Z" fill="#000000" fill-rule="nonzero" fill-opacity="1" /><path clip-path="url(#clip880)" d="Mnan nan Lnan nan Lnan nan Lnan nan Lnan nan Z" fill="#000000" fill-rule="nonzero" fill-opacity="1" /><path clip-path="url(#clip880)" d="Mnan nan Lnan nan Lnan nan Lnan nan Lnan nan Qnan nan nan nan Qnan nan nan nan Qnan nan nan nan Qnan nan nan nan Qnan nan nan nan Qnan nan nan nan Qnan nan nan nan Qnan nan nan nan Lnan nan Qnan nan nan nan Qnan nan nan nan Qnan nan nan nan Qnan nan nan nan Qnan nan nan nan Qnan nan nan nan Qnan nan nan nan Qnan nan nan nan Lnan nan Z" fill="#000000" fill-rule="nonzero" fill-opacity="1" /><path clip-path="url(#clip880)" d="Mnan nan Lnan nan Lnan nan Lnan nan Lnan nan Z" fill="#000000" fill-rule="nonzero" fill-opacity="1" /><path clip-path="url(#clip880)" d="Mnan nan Lnan nan Lnan nan Lnan nan Lnan nan Lnan nan Qnan nan nan nan Qnan nan nan nan Lnan nan Lnan nan Lnan nan Qnan nan nan nan Qnan nan nan nan Lnan nan Lnan nan Lnan nan Lnan nan Lnan nan Lnan nan Z" fill="#000000" fill-rule="nonzero" fill-opacity="1" /><path clip-path="url(#clip880)" d="Mnan nan Lnan nan Lnan nan Qnan nan nan nan Qnan nan nan nan Qnan nan nan nan Qnan nan nan nan Lnan nan Qnan nan nan nan Qnan nan nan nan Qnan nan nan nan Qnan nan nan nan Qnan nan nan nan Qnan nan nan nan Qnan nan nan nan Qnan nan nan nan Mnan nan Qnan nan nan nan Qnan nan nan nan Qnan nan nan nan Qnan nan nan nan Lnan nan Z" fill="#000000" fill-rule="nonzero" fill-opacity="1" /><path clip-path="url(#clip880)" d="Mnan nan Qnan nan nan nan Qnan nan nan nan Qnan nan nan nan Qnan nan nan nan Lnan nan Lnan nan Lnan nan Lnan nan Lnan nan Qnan nan nan nan Qnan nan nan nan Qnan nan nan nan Qnan nan nan nan Lnan nan Z" fill="#000000" fill-rule="nonzero" fill-opacity="1" /><path clip-path="url(#clip880)" d="Mnan nan Qnan nan nan nan Qnan nan nan nan Qnan nan nan nan Qnan nan nan nan Qnan nan nan nan Qnan nan nan nan Lnan nan Lnan nan Mnan nan Lnan nan Lnan nan Lnan nan Qnan nan nan nan Qnan nan nan nan Qnan nan nan nan Qnan nan nan nan Qnan nan nan nan Qnan nan nan nan Lnan nan Lnan nan Qnan nan nan nan Qnan nan nan nan Qnan nan nan nan Qnan nan nan nan Lnan nan Qnan nan nan nan Qnan nan nan nan Qnan nan nan nan Qnan nan nan nan Z" fill="#000000" fill-rule="nonzero" fill-opacity="1" /><path clip-path="url(#clip880)" d="Mnan nan Lnan nan Lnan nan Lnan nan Lnan nan Lnan nan Qnan nan nan nan Qnan nan nan nan Lnan nan Lnan nan Lnan nan Qnan nan nan nan Qnan nan nan nan Lnan nan Lnan nan Lnan nan Lnan nan Lnan nan Lnan nan Z" fill="#000000" fill-rule="nonzero" fill-opacity="1" /><path clip-path="url(#clip880)" d="Mnan nan Lnan nan Lnan nan Lnan nan Lnan nan Mnan nan Lnan nan Lnan nan Lnan nan Lnan nan Z" fill="#000000" fill-rule="nonzero" fill-opacity="1" /><path clip-path="url(#clip880)" d="Mnan nan Qnan nan nan nan Qnan nan nan nan Qnan nan nan nan Qnan nan nan nan Qnan nan nan nan Qnan nan nan nan Qnan nan nan nan Qnan nan nan nan Mnan nan Qnan nan nan nan Qnan nan nan nan Qnan nan nan nan Qnan nan nan nan Qnan nan nan nan Qnan nan nan nan Qnan nan nan nan Qnan nan nan nan Z" fill="#000000" fill-rule="nonzero" fill-opacity="1" /><path clip-path="url(#clip880)" d="Mnan nan Lnan nan Lnan nan Lnan nan Qnan nan nan nan Qnan nan nan nan Qnan nan nan nan Qnan nan nan nan Lnan nan Lnan nan Lnan nan Lnan nan Lnan nan Qnan nan nan nan Qnan nan nan nan Qnan nan nan nan Qnan nan nan nan Z" fill="#000000" fill-rule="nonzero" fill-opacity="1" /><path clip-path="url(#clip880)" d="Mnan nan Lnan nan Lnan nan Lnan nan Mnan nan Lnan nan Lnan nan Lnan nan Lnan nan Lnan nan Lnan nan Lnan nan Lnan nan Z" fill="#000000" fill-rule="nonzero" fill-opacity="1" /><path clip-path="url(#clip880)" d="Mnan nan Qnan nan nan nan Qnan nan nan nan Qnan nan nan nan Qnan nan nan nan Qnan nan nan nan Qnan nan nan nan Qnan nan nan nan Qnan nan nan nan Mnan nan Qnan nan nan nan Qnan nan nan nan Qnan nan nan nan Qnan nan nan nan Qnan nan nan nan Qnan nan nan nan Qnan nan nan nan Qnan nan nan nan Lnan nan Lnan nan Lnan nan Lnan nan Lnan nan Z" fill="#000000" fill-rule="nonzero" fill-opacity="1" /><path clip-path="url(#clip880)" d="Mnan nan Lnan nan Qnan nan nan nan Qnan nan nan nan Qnan nan nan nan Qnan nan nan nan Qnan nan nan nan Qnan nan nan nan Lnan nan Qnan nan nan nan Qnan nan nan nan Qnan nan nan nan Qnan nan nan nan Qnan nan nan nan Qnan nan nan nan Lnan nan Qnan nan nan nan Qnan nan nan nan Qnan nan nan nan Qnan nan nan nan Qnan nan nan nan Qnan nan nan nan Lnan nan Qnan nan nan nan Qnan nan nan nan Qnan nan nan nan Qnan nan nan nan Qnan nan nan nan Qnan nan nan nan Z" fill="#000000" fill-rule="nonzero" fill-opacity="1" /><path clip-path="url(#clip880)" d="Mnan nan Qnan nan nan nan Qnan nan nan nan Qnan nan nan nan Qnan nan nan nan Qnan nan nan nan Qnan nan nan nan Qnan nan nan nan Qnan nan nan nan Mnan nan Qnan nan nan nan Qnan nan nan nan Qnan nan nan nan Qnan nan nan nan Qnan nan nan nan Qnan nan nan nan Qnan nan nan nan Qnan nan nan nan Z" fill="#000000" fill-rule="nonzero" fill-opacity="1" /><path clip-path="url(#clip880)" d="Mnan nan Lnan nan Lnan nan Lnan nan Lnan nan Z" fill="#000000" fill-rule="nonzero" fill-opacity="1" /><path clip-path="url(#clip880)" d="Mnan nan Lnan nan Lnan nan Lnan nan Qnan nan nan nan Qnan nan nan nan Qnan nan nan nan Qnan nan nan nan Lnan nan Lnan nan Lnan nan Lnan nan Lnan nan Qnan nan nan nan Qnan nan nan nan Qnan nan nan nan Qnan nan nan nan Mnan nan Lnan nan Z" fill="#000000" fill-rule="nonzero" fill-opacity="1" /><path clip-path="url(#clip880)" d="Mnan nan Lnan nan Lnan nan Lnan nan Lnan nan Lnan nan Qnan nan nan nan Qnan nan nan nan Lnan nan Lnan nan Lnan nan Qnan nan nan nan Qnan nan nan nan Lnan nan Lnan nan Lnan nan Lnan nan Lnan nan Lnan nan Z" fill="#000000" fill-rule="nonzero" fill-opacity="1" /><path clip-path="url(#clip880)" d="Mnan nan Lnan nan Lnan nan Qnan nan nan nan Qnan nan nan nan Qnan nan nan nan Qnan nan nan nan Lnan nan Qnan nan nan nan Qnan nan nan nan Qnan nan nan nan Qnan nan nan nan Qnan nan nan nan Qnan nan nan nan Qnan nan nan nan Qnan nan nan nan Mnan nan Qnan nan nan nan Qnan nan nan nan Qnan nan nan nan Qnan nan nan nan Lnan nan Z" fill="#000000" fill-rule="nonzero" fill-opacity="1" /><path clip-path="url(#clip880)" d="Mnan nan Lnan nan Lnan nan Lnan nan Lnan nan Lnan nan Lnan nan Lnan nan Lnan nan Lnan nan Lnan nan Lnan nan Lnan nan Z" fill="#000000" fill-rule="nonzero" fill-opacity="1" /><path clip-path="url(#clip880)" d="Mnan nan Qnan nan nan nan Qnan nan nan nan Qnan nan nan nan Qnan nan nan nan Lnan nan Lnan nan Lnan nan Lnan nan Lnan nan Qnan nan nan nan Qnan nan nan nan Qnan nan nan nan Qnan nan nan nan Lnan nan Z" fill="#000000" fill-rule="nonzero" fill-opacity="1" /><path clip-path="url(#clip880)" d="Mnan nan Qnan nan nan nan Qnan nan nan nan Qnan nan nan nan Qnan nan nan nan Lnan nan Lnan nan Lnan nan Lnan nan Lnan nan Qnan nan nan nan Qnan nan nan nan Qnan nan nan nan Qnan nan nan nan Lnan nan Z" fill="#000000" fill-rule="nonzero" fill-opacity="1" /><path clip-path="url(#clip880)" d="Mnan nan Qnan nan nan nan Qnan nan nan nan Qnan nan nan nan Qnan nan nan nan Qnan nan nan nan Qnan nan nan nan Qnan nan nan nan Qnan nan nan nan Mnan nan Qnan nan nan nan Qnan nan nan nan Qnan nan nan nan Qnan nan nan nan Qnan nan nan nan Qnan nan nan nan Qnan nan nan nan Qnan nan nan nan Z" fill="#000000" fill-rule="nonzero" fill-opacity="1" /><path clip-path="url(#clip880)" d="Mnan nan Qnan nan nan nan Qnan nan nan nan Qnan nan nan nan Qnan nan nan nan Lnan nan Lnan nan Lnan nan Lnan nan Lnan nan Qnan nan nan nan Qnan nan nan nan Qnan nan nan nan Qnan nan nan nan Lnan nan Z" fill="#000000" fill-rule="nonzero" fill-opacity="1" /><path clip-path="url(#clip880)" d="Mnan nan Lnan nan Qnan nan nan nan Qnan nan nan nan Qnan nan nan nan Qnan nan nan nan Qnan nan nan nan Qnan nan nan nan Qnan nan nan nan Qnan nan nan nan Lnan nan Qnan nan nan nan Qnan nan nan nan Qnan nan nan nan Qnan nan nan nan Qnan nan nan nan Qnan nan nan nan Qnan nan nan nan Qnan nan nan nan Z" fill="#000000" fill-rule="nonzero" fill-opacity="1" /><path clip-path="url(#clip880)" d="Mnan nan Qnan nan nan nan Qnan nan nan nan Qnan nan nan nan Qnan nan nan nan Qnan nan nan nan Qnan nan nan nan Qnan nan nan nan Qnan nan nan nan Mnan nan Qnan nan nan nan Qnan nan nan nan Qnan nan nan nan Qnan nan nan nan Qnan nan nan nan Qnan nan nan nan Qnan nan nan nan Qnan nan nan nan Z" fill="#000000" fill-rule="nonzero" fill-opacity="1" /><path clip-path="url(#clip880)" d="Mnan nan Lnan nan Lnan nan Lnan nan Qnan nan nan nan Qnan nan nan nan Qnan nan nan nan Qnan nan nan nan Lnan nan Lnan nan Lnan nan Lnan nan Lnan nan Qnan nan nan nan Qnan nan nan nan Qnan nan nan nan Qnan nan nan nan Z" fill="#000000" fill-rule="nonzero" fill-opacity="1" /><path clip-path="url(#clip880)" d="Mnan nan Lnan nan Lnan nan Lnan nan Lnan nan Lnan nan Lnan nan Lnan nan Z" fill="#000000" fill-rule="nonzero" fill-opacity="1" /><path clip-path="url(#clip880)" d="Mnan nan Lnan nan Lnan nan Qnan nan nan nan Qnan nan nan nan Qnan nan nan nan Qnan nan nan nan Lnan nan Qnan nan nan nan Qnan nan nan nan Qnan nan nan nan Qnan nan nan nan Qnan nan nan nan Qnan nan nan nan Qnan nan nan nan Qnan nan nan nan Mnan nan Qnan nan nan nan Qnan nan nan nan Qnan nan nan nan Qnan nan nan nan Lnan nan Z" fill="#000000" fill-rule="nonzero" fill-opacity="1" /><path clip-path="url(#clip880)" d="Mnan nan Qnan nan nan nan Qnan nan nan nan Qnan nan nan nan Qnan nan nan nan Lnan nan Lnan nan Lnan nan Lnan nan Lnan nan Qnan nan nan nan Qnan nan nan nan Qnan nan nan nan Qnan nan nan nan Lnan nan Z" fill="#000000" fill-rule="nonzero" fill-opacity="1" /><path clip-path="url(#clip880)" d="Mnan nan Qnan nan nan nan Qnan nan nan nan Qnan nan nan nan Qnan nan nan nan Qnan nan nan nan Qnan nan nan nan Qnan nan nan nan Qnan nan nan nan Mnan nan Qnan nan nan nan Qnan nan nan nan Qnan nan nan nan Qnan nan nan nan Lnan nan Qnan nan nan nan Qnan nan nan nan Qnan nan nan nan Qnan nan nan nan Lnan nan Qnan nan nan nan Qnan nan nan nan Qnan nan nan nan Qnan nan nan nan Qnan nan nan nan Qnan nan nan nan Qnan nan nan nan Qnan nan nan nan Lnan nan Lnan nan Lnan nan Z" fill="#000000" fill-rule="nonzero" fill-opacity="1" /><path clip-path="url(#clip880)" d="Mnan nan Lnan nan Lnan nan Qnan nan nan nan Qnan nan nan nan Qnan nan nan nan Qnan nan nan nan Lnan nan Qnan nan nan nan Qnan nan nan nan Qnan nan nan nan Qnan nan nan nan Qnan nan nan nan Qnan nan nan nan Qnan nan nan nan Qnan nan nan nan Mnan nan Qnan nan nan nan Qnan nan nan nan Qnan nan nan nan Qnan nan nan nan Lnan nan Z" fill="#000000" fill-rule="nonzero" fill-opacity="1" /><path clip-path="url(#clip880)" d="Mnan nan Lnan nan Lnan nan Lnan nan Qnan nan nan nan Qnan nan nan nan Qnan nan nan nan Qnan nan nan nan Lnan nan Lnan nan Lnan nan Lnan nan Lnan nan Qnan nan nan nan Qnan nan nan nan Qnan nan nan nan Qnan nan nan nan Z" fill="#000000" fill-rule="nonzero" fill-opacity="1" /><path clip-path="url(#clip880)" d="Mnan nan Lnan nan Qnan nan nan nan Qnan nan nan nan Qnan nan nan nan Qnan nan nan nan Qnan nan nan nan Qnan nan nan nan Qnan nan nan nan Qnan nan nan nan Lnan nan Qnan nan nan nan Qnan nan nan nan Qnan nan nan nan Qnan nan nan nan Qnan nan nan nan Qnan nan nan nan Qnan nan nan nan Qnan nan nan nan Z" fill="#000000" fill-rule="nonzero" fill-opacity="1" /><path clip-path="url(#clip880)" d="Mnan nan Lnan nan Lnan nan Qnan nan nan nan Qnan nan nan nan Qnan nan nan nan Qnan nan nan nan Lnan nan Qnan nan nan nan Qnan nan nan nan Qnan nan nan nan Qnan nan nan nan Qnan nan nan nan Qnan nan nan nan Qnan nan nan nan Qnan nan nan nan Mnan nan Qnan nan nan nan Qnan nan nan nan Qnan nan nan nan Qnan nan nan nan Lnan nan Z" fill="#000000" fill-rule="nonzero" fill-opacity="1" /><path clip-path="url(#clip880)" d="Mnan nan Qnan nan nan nan Qnan nan nan nan Qnan nan nan nan Qnan nan nan nan Qnan nan nan nan Qnan nan nan nan Qnan nan nan nan Qnan nan nan nan Mnan nan Qnan nan nan nan Qnan nan nan nan Qnan nan nan nan Qnan nan nan nan Qnan nan nan nan Qnan nan nan nan Qnan nan nan nan Qnan nan nan nan Z" fill="#000000" fill-rule="nonzero" fill-opacity="1" /><path clip-path="url(#clip880)" d="Mnan nan Lnan nan Lnan nan Qnan nan nan nan Qnan nan nan nan Lnan nan Lnan nan Lnan nan Lnan nan Lnan nan Lnan nan Lnan nan Lnan nan Lnan nan Lnan nan Lnan nan Qnan nan nan nan Qnan nan nan nan Lnan nan Z" fill="#000000" fill-rule="nonzero" fill-opacity="1" /><path clip-path="url(#clip880)" d="Mnan nan Lnan nan Lnan nan Lnan nan Lnan nan Lnan nan Qnan nan nan nan Qnan nan nan nan Lnan nan Lnan nan Lnan nan Qnan nan nan nan Qnan nan nan nan Lnan nan Lnan nan Lnan nan Lnan nan Lnan nan Lnan nan Z" fill="#000000" fill-rule="nonzero" fill-opacity="1" /><path clip-path="url(#clip880)" d="Mnan nan Lnan nan Lnan nan Lnan nan Qnan nan nan nan Qnan nan nan nan Qnan nan nan nan Qnan nan nan nan Lnan nan Lnan nan Lnan nan Lnan nan Lnan nan Qnan nan nan nan Qnan nan nan nan Qnan nan nan nan Qnan nan nan nan Z" fill="#000000" fill-rule="nonzero" fill-opacity="1" /><path clip-path="url(#clip880)" d="Mnan nan Lnan nan Lnan nan Qnan nan nan nan Qnan nan nan nan Qnan nan nan nan Qnan nan nan nan Lnan nan Qnan nan nan nan Qnan nan nan nan Qnan nan nan nan Qnan nan nan nan Qnan nan nan nan Qnan nan nan nan Qnan nan nan nan Qnan nan nan nan Mnan nan Qnan nan nan nan Qnan nan nan nan Qnan nan nan nan Qnan nan nan nan Lnan nan Z" fill="#000000" fill-rule="nonzero" fill-opacity="1" /><path clip-path="url(#clip880)" d="Mnan nan Lnan nan Lnan nan Qnan nan nan nan Qnan nan nan nan Qnan nan nan nan Qnan nan nan nan Lnan nan Mnan nan Lnan nan Lnan nan Qnan nan nan nan Qnan nan nan nan Qnan nan nan nan Qnan nan nan nan Lnan nan Mnan nan Lnan nan Qnan nan nan nan Qnan nan nan nan Qnan nan nan nan Qnan nan nan nan Qnan nan nan nan Qnan nan nan nan Qnan nan nan nan Qnan nan nan nan Lnan nan Lnan nan Z" fill="#000000" fill-rule="nonzero" fill-opacity="1" /><path clip-path="url(#clip880)" d="Mnan nan Lnan nan Lnan nan Lnan nan Lnan nan Mnan nan Lnan nan Lnan nan Lnan nan Lnan nan Z" fill="#000000" fill-rule="nonzero" fill-opacity="1" /><path clip-path="url(#clip880)" d="Mnan nan Lnan nan Qnan nan nan nan Qnan nan nan nan Qnan nan nan nan Qnan nan nan nan Qnan nan nan nan Qnan nan nan nan Lnan nan Qnan nan nan nan Qnan nan nan nan Qnan nan nan nan Qnan nan nan nan Qnan nan nan nan Qnan nan nan nan Lnan nan Qnan nan nan nan Qnan nan nan nan Qnan nan nan nan Qnan nan nan nan Qnan nan nan nan Qnan nan nan nan Lnan nan Qnan nan nan nan Qnan nan nan nan Qnan nan nan nan Qnan nan nan nan Qnan nan nan nan Qnan nan nan nan Z" fill="#000000" fill-rule="nonzero" fill-opacity="1" /><path clip-path="url(#clip880)" d="Mnan nan Lnan nan Lnan nan Qnan nan nan nan Qnan nan nan nan Qnan nan nan nan Qnan nan nan nan Lnan nan Qnan nan nan nan Qnan nan nan nan Qnan nan nan nan Qnan nan nan nan Qnan nan nan nan Qnan nan nan nan Qnan nan nan nan Qnan nan nan nan Mnan nan Qnan nan nan nan Qnan nan nan nan Qnan nan nan nan Qnan nan nan nan Lnan nan Z" fill="#000000" fill-rule="nonzero" fill-opacity="1" /><path clip-path="url(#clip880)" d="Mnan nan Lnan nan Qnan nan nan nan Qnan nan nan nan Qnan nan nan nan Qnan nan nan nan Qnan nan nan nan Qnan nan nan nan Qnan nan nan nan Qnan nan nan nan Lnan nan Qnan nan nan nan Qnan nan nan nan Qnan nan nan nan Qnan nan nan nan Qnan nan nan nan Qnan nan nan nan Qnan nan nan nan Qnan nan nan nan Z" fill="#000000" fill-rule="nonzero" fill-opacity="1" /><path clip-path="url(#clip880)" d="Mnan nan Lnan nan Lnan nan Lnan nan Lnan nan Lnan nan Qnan nan nan nan Qnan nan nan nan Lnan nan Lnan nan Lnan nan Qnan nan nan nan Qnan nan nan nan Lnan nan Lnan nan Lnan nan Lnan nan Lnan nan Lnan nan Z" fill="#000000" fill-rule="nonzero" fill-opacity="1" /><path clip-path="url(#clip880)" d="Mnan nan Lnan nan Lnan nan Lnan nan Lnan nan Mnan nan Lnan nan Lnan nan Lnan nan Lnan nan Z" fill="#000000" fill-rule="nonzero" fill-opacity="1" /><path clip-path="url(#clip880)" d="Mnan nan Qnan nan nan nan Qnan nan nan nan Qnan nan nan nan Qnan nan nan nan Qnan nan nan nan Qnan nan nan nan Qnan nan nan nan Qnan nan nan nan Mnan nan Qnan nan nan nan Qnan nan nan nan Qnan nan nan nan Qnan nan nan nan Qnan nan nan nan Qnan nan nan nan Qnan nan nan nan Qnan nan nan nan Z" fill="#000000" fill-rule="nonzero" fill-opacity="1" /><path clip-path="url(#clip880)" d="Mnan nan Lnan nan Lnan nan Lnan nan Qnan nan nan nan Qnan nan nan nan Qnan nan nan nan Qnan nan nan nan Lnan nan Lnan nan Lnan nan Lnan nan Lnan nan Qnan nan nan nan Qnan nan nan nan Qnan nan nan nan Qnan nan nan nan Z" fill="#000000" fill-rule="nonzero" fill-opacity="1" /><path clip-path="url(#clip880)" d="Mnan nan Lnan nan Lnan nan Lnan nan Lnan nan Lnan nan Lnan nan Lnan nan Lnan nan Lnan nan Lnan nan Lnan nan Lnan nan Lnan nan Z" fill="#000000" fill-rule="nonzero" fill-opacity="1" /><path clip-path="url(#clip880)" d="Mnan nan Lnan nan Lnan nan Qnan nan nan nan Qnan nan nan nan Qnan nan nan nan Qnan nan nan nan Lnan nan Qnan nan nan nan Qnan nan nan nan Qnan nan nan nan Qnan nan nan nan Qnan nan nan nan Qnan nan nan nan Qnan nan nan nan Qnan nan nan nan Mnan nan Qnan nan nan nan Qnan nan nan nan Qnan nan nan nan Qnan nan nan nan Lnan nan Z" fill="#000000" fill-rule="nonzero" fill-opacity="1" /><path clip-path="url(#clip880)" d="Mnan nan Lnan nan Lnan nan Lnan nan Lnan nan Lnan nan Qnan nan nan nan Qnan nan nan nan Lnan nan Lnan nan Lnan nan Qnan nan nan nan Qnan nan nan nan Lnan nan Lnan nan Lnan nan Lnan nan Lnan nan Lnan nan Z" fill="#000000" fill-rule="nonzero" fill-opacity="1" /><path clip-path="url(#clip880)" d="Mnan nan Lnan nan Lnan nan Lnan nan Qnan nan nan nan Qnan nan nan nan Qnan nan nan nan Qnan nan nan nan Lnan nan Lnan nan Lnan nan Lnan nan Lnan nan Qnan nan nan nan Qnan nan nan nan Qnan nan nan nan Qnan nan nan nan Z" fill="#000000" fill-rule="nonzero" fill-opacity="1" /><path clip-path="url(#clip880)" d="Mnan nan Qnan nan nan nan Qnan nan nan nan Qnan nan nan nan Qnan nan nan nan Qnan nan nan nan Qnan nan nan nan Qnan nan nan nan Qnan nan nan nan Mnan nan Qnan nan nan nan Qnan nan nan nan Qnan nan nan nan Qnan nan nan nan Qnan nan nan nan Qnan nan nan nan Qnan nan nan nan Qnan nan nan nan Z" fill="#000000" fill-rule="nonzero" fill-opacity="1" /><path clip-path="url(#clip880)" d="Mnan nan Lnan nan Lnan nan Lnan nan Lnan nan Lnan nan Qnan nan nan nan Qnan nan nan nan Qnan nan nan nan Qnan nan nan nan Qnan nan nan nan Qnan nan nan nan Qnan nan nan nan Qnan nan nan nan Mnan nan Qnan nan nan nan Qnan nan nan nan Qnan nan nan nan Qnan nan nan nan Qnan nan nan nan Qnan nan nan nan Qnan nan nan nan Qnan nan nan nan Z" fill="#000000" fill-rule="nonzero" fill-opacity="1" /><polyline clip-path="url(#clip882)" style="stroke:#009af9; stroke-linecap:round; stroke-linejoin:round; stroke-width:4; stroke-opacity:1; fill:none" points="2640.76,1350.07 5124.98,1716.58 7609.2,1550.86 10093.4,1651.25 12577.6,1701.45 15061.9,1726.55 17546.1,1729.13 20030.3,1732.83 22514.5,1732.27 24998.7,1733.84 27483,1733.61 29967.2,1734 32451.4,1734.04 34935.6,1734.1 37419.9,1734.08 39904.1,1734.11 42388.3,1734.11 44872.5,1734.12 47356.7,1734.12 "/>
<polyline clip-path="url(#clip882)" style="stroke:#e26f46; stroke-linecap:round; stroke-linejoin:round; stroke-width:4; stroke-opacity:1; fill:none" points="2640.76,2943.48 5124.98,3426.01 7609.2,3908.53 10093.4,4391.06 12577.6,4873.59 15061.9,5356.11 17546.1,5838.64 20030.3,6321.17 22514.5,6803.69 24998.7,7286.22 27483,7768.75 29967.2,8251.27 32451.4,8733.8 34935.6,9216.33 37419.9,9698.85 39904.1,10181.4 42388.3,10663.9 44872.5,11146.4 47356.7,11629 "/>
</svg>
